<?xml version="1.0" standalone="no"?>
<!DOCTYPE svg PUBLIC "-//W3C//DTD SVG 20010904//EN"
 "http://www.w3.org/TR/2001/REC-SVG-20010904/DTD/svg10.dtd">
<svg version="1.0" xmlns="http://www.w3.org/2000/svg"
 width="548.000000pt" height="170.000000pt" viewBox="0 0 548.000000 170.000000"
 preserveAspectRatio="xMidYMid meet">

<g transform="translate(0.000000,170.000000) scale(0.100000,-0.100000)"
fill="#000000" stroke="none">
<path d="M574 1330 c-125 -19 -233 -77 -319 -172 -234 -256 -179 -667 116
-858 92 -59 176 -84 289 -84 212 0 395 114 489 305 47 97 61 158 61 274 l0 83
-51 -19 c-28 -11 -92 -30 -142 -43 l-92 -24 -79 -196 -78 -196 -77 0 -76 0
-120 311 c-66 171 -121 315 -123 320 -2 5 31 9 76 9 l79 0 26 -72 c14 -40 51
-148 82 -240 32 -93 61 -168 64 -168 16 0 133 332 157 445 15 66 39 149 55
184 16 35 29 65 29 67 0 7 -57 33 -115 52 -73 23 -181 33 -251 22z"/>
<path d="M1982 1014 c-45 -31 -20 -104 37 -104 60 0 87 55 47 95 -29 29 -52
31 -84 9z"/>
<path d="M1474 973 c11 -40 90 -295 123 -395 l34 -108 64 0 63 0 77 238 c43
130 82 247 86 260 8 21 6 22 -47 22 -35 0 -56 -5 -59 -12 -2 -7 -30 -96 -62
-197 l-58 -183 -60 196 -60 196 -53 0 c-46 0 -53 -2 -48 -17z"/>
<path d="M3483 975 c8 -18 137 -492 137 -499 0 -4 26 -6 58 -6 l57 0 49 175
c27 97 51 174 53 172 2 -3 25 -80 52 -173 l47 -169 55 -3 56 -3 47 178 c27 98
59 215 71 261 l23 82 -53 0 -52 0 -43 -172 c-41 -169 -59 -218 -61 -168 0 14
-22 95 -48 180 l-47 155 -49 0 -49 0 -52 -180 c-59 -206 -45 -209 -104 25 -17
69 -34 133 -36 143 -4 13 -17 17 -61 17 -44 0 -54 -3 -50 -15z"/>
<path d="M2480 905 l0 -55 -35 0 c-33 0 -35 -2 -35 -35 0 -33 2 -35 35 -35
l35 0 0 -121 c0 -168 13 -188 123 -189 l67 0 0 40 c0 39 -1 40 -33 40 -51 0
-57 13 -57 127 l0 103 45 0 c45 0 45 0 45 35 0 35 0 35 -45 35 l-45 0 0 55 0
55 -50 0 -50 0 0 -55z"/>
<path d="M5010 905 c0 -54 0 -55 -30 -55 -28 0 -30 -3 -30 -35 0 -32 2 -35 30
-35 l30 0 0 -102 c0 -177 19 -208 127 -208 l63 0 0 40 c0 38 -2 40 -29 40 -53
0 -62 20 -59 129 l3 96 43 3 c41 3 42 4 42 38 0 34 0 34 -45 34 l-45 0 0 55 0
55 -50 0 -50 0 0 -55z"/>
<path d="M3256 859 c-88 -21 -136 -91 -136 -198 0 -131 85 -211 211 -199 51 5
129 48 129 71 0 6 -14 20 -31 30 -28 15 -34 16 -48 3 -22 -19 -65 -30 -96 -22
-33 8 -65 44 -65 73 0 23 1 23 130 23 l130 0 0 38 c-1 46 -22 106 -47 134 -39
43 -111 62 -177 47z m99 -94 c45 -44 35 -55 -55 -55 -83 0 -89 4 -69 41 22 43
89 50 124 14z"/>
<path d="M4340 860 c-49 -9 -75 -25 -103 -63 -93 -124 -35 -307 106 -332 61
-12 124 3 162 37 19 16 35 33 35 37 0 4 -15 14 -32 23 -31 14 -35 13 -63 -4
-59 -37 -155 2 -155 63 0 18 8 19 136 19 l136 0 -6 48 c-19 131 -98 194 -216
172z m74 -81 c14 -7 29 -25 35 -40 l10 -29 -84 0 c-79 0 -83 1 -78 20 7 25 49
60 74 60 10 0 29 -5 43 -11z"/>
<path d="M2300 853 c-8 -3 -25 -15 -37 -26 l-23 -20 0 21 c0 19 -5 22 -45 22
l-45 0 0 -190 0 -190 45 0 45 0 0 115 c0 158 19 192 103 183 32 -3 32 -3 35
45 l3 47 -33 -1 c-18 0 -40 -3 -48 -6z"/>
<path d="M4668 844 c-35 -18 -58 -62 -58 -108 0 -55 40 -92 124 -113 78 -20
104 -45 72 -69 -29 -21 -79 -17 -118 10 -31 21 -37 22 -54 9 -10 -8 -26 -18
-34 -23 -12 -7 -12 -12 5 -31 48 -53 158 -75 230 -45 43 18 75 69 75 118 0 57
-39 93 -124 115 -74 19 -99 41 -77 67 18 21 59 20 96 -2 31 -19 33 -19 83 14
2 1 -1 11 -7 22 -25 47 -153 69 -213 36z"/>
<path d="M1970 660 l0 -190 50 0 50 0 0 190 0 190 -50 0 -50 0 0 -190z"/>
<path d="M2720 713 c1 -198 26 -247 131 -247 29 0 59 8 82 22 36 21 37 21 37
2 0 -17 7 -20 45 -20 l45 0 0 190 0 190 -50 0 -50 0 0 -128 c0 -121 -1 -130
-23 -150 -29 -27 -78 -29 -100 -4 -14 15 -17 42 -17 150 l0 132 -50 0 -50 0 0
-137z"/>
</g>
</svg>
